<?xml version="1.0" standalone="no"?>
<!DOCTYPE svg PUBLIC "-//W3C//DTD SVG 1.1//EN" "http://www.w3.org/Graphics/SVG/1.1/DTD/svg11.dtd" >
<svg xmlns="http://www.w3.org/2000/svg">
<metadata>
This is a custom SVG font generated by IcoMoon.
<iconset grid="16" name="elss" id="elss"></iconset><author name="Katie Freidhof"></author>
</metadata>
<defs>
<font id="elss" horiz-adv-x="512" >
<font-face units-per-em="512" ascent="480" descent="-32" />
<missing-glyph horiz-adv-x="512" />
<glyph class="hidden" unicode="&#xf000;" d="M0,480L 512 -32L0 -32 z" horiz-adv-x="0" />
<glyph unicode="&#x21;" d="M 346.664,404.92L 289,396.936L 346.632,373.2 	zM 87.336,480L 259.648,409.024L 346.688,421.080L 346.76,480 	zM 362.752,480L 362.688,423.296L 432.208,432.92L 450.216,480 	zM 346.168-26.528l 0.216,190.336l-67.768-177.152C 299.992-19.144, 322.496-23.568, 346.168-26.528zM 45.344,480L 24.888,480 C 11.696,480, 1,469.304, 1,456.112l0-67.848 c0-5.056, 0.16-10.024, 0.28-15.008l 226.944,31.424L 45.344,480zM 257.568,392.584L 116.112,373L 305.12,373 	zM 512,373L 512,427.816L 443.768,418.368L 426.408,373 	zM 362.6,349.328L 362.488,250.648L 395.112,335.936 	zM 346.44,208.688l 0.168,147.224l-2.64,1.088L 1.872,357 c 9.2-183.28, 100.024-315.728, 261.344-365.864L 346.44,208.688zM 409.896,329.84L 362.44,205.76l-0.272-233.96c 18.72-1.784, 38.032-2.808, 58.104-2.808l 67.832,0 c 13.208,0, 23.904,10.712, 23.904,23.88
		L 512.008,287.792 L 409.896,329.84zM 467.344,480l-17.056-44.576L 512,443.968L 512,456.112 C 512,469.304, 501.304,480, 488.096,480L 467.344,480 zM 512,357L 420.288,357L 415.616,344.784L 512,305.088 	zM 403.168,357L 385.96,357L 400.832,350.872 	zM 425.688,415.864L 362.672,407.144L 362.632,373L 409.288,373 	z" data-tags="elss" />
<glyph unicode="&#x22;" d="M 376.232,364.904l0,12.584 c-4.032,1.104-7.096,4.472-8.2,8.368l-75.184,0 l 72.928-28.208 C 368.032,361.256, 371.768,364.072, 376.232,364.904zM 512,300.568l0,56.784 c0,0,0,0.832-0.128,2.232C 512,360.424, 512,361.536, 512,362.504l0,23.352 l-46,0 c-1.592-4.712-5.864-8.088-10.96-8.088c-0.528,0-1.192,0-1.768,0.152L 436,338.336c 2.544-2.088, 4-5.304, 4-8.952 c0-0.312,0-0.56,0-0.848L 512,300.568zM 382.272,480l0-22.816 c 5.608-1.12, 10.168-5.328, 11.928-11l 77.704,9.632c 0.664,6.152, 5.528,10.88, 11.528,10.88 c 0.528,0, 1.056-0.104, 1.64-0.24L 490.928,480L 382.272,480 zM 444.032,385.856l-53.584,0 c-1.2-4.040-4.32-7.264-8.168-8.368l0-12.584 c 7.072-1.696, 12.568-8.232, 12.568-16.224 c0-0.848-0.152-1.656-0.272-2.4l 24.696-9.64c 2.104,2.952, 5.344,4.784, 9.112,4.784c 0.632,0, 1.328,0, 1.992-0.152l 17.176,39.272 C 445.896,381.968, 444.712,383.928, 444.032,385.856zM 189.648,426.152c 2.152,2.816, 5.488,4.752, 9.256,4.752c 4.816,0, 9.112-3.080, 10.728-7.544L 363.6,442.36 c 0.536,7.432, 5.632,13.456, 12.632,14.824L 376.232,480 L 51.584,480 L 189.648,426.152zM 262.416,397.92c 2.824,4.768, 7.792,7.84, 13.424,7.84c 7.608,0, 14.080-5.608, 15.528-13.184l 76.664,0 c 0.952,4.216, 3.904,7.432, 8.2,8.416L 376.232,425.032 c-5.624,1.12-10.072,5.32-11.96,10.752L 213.112,416.928L 262.416,397.92zM 382.272,425.032l0-24.040 c 3.848-1.136, 6.968-4.2, 8.168-8.416l 53.184,0 c 1.080,5.344, 5.368,9.52, 11.408,9.52 c 0.664,0, 1.2-0.136, 1.736-0.28L 475.84,445.44c-1.112,0.992-2.2,2.264-2.864,3.8l-78.136-9.664 C 394.2,432.328, 388.944,426.28, 382.272,425.032zM 483.44,442.36c-0.664,0-1.192,0-1.864,0.152l-19.032-43.472c 1.864-1.712, 3.232-3.928, 3.856-6.464L 512,392.576 L 512,454.104 l-17.16-2.248 C 493.768,446.424, 489.064,442.36, 483.44,442.36zM 376.232,201.56L 277.84-23.304c 21.040-4.8, 42.768-7.704, 65.136-8.52l 33.256,0 L 376.232,201.56 zM 371.664,207.168c-2.52,2.248-4.168,5.6-4.168,9.208c0,5.6, 3.792,10.336, 8.744,11.744L 376.24,332.448 c-7.392,1.4-13.032,8.128-13.032,16.232c0,0.824, 0.136,1.816, 0.288,2.768l-74.392,28.816c-2.792-4.448-7.664-7.504-13.264-7.504 c-7.624,0-13.952,5.72-15.424,13.104L0,385.864 l0-23.352 l0-20.8 c0-176.216, 114.848-323.912, 271.528-363.384L 371.664,207.168zM 438.008,322.4c-2.136-3.080-5.632-5.328-9.632-5.328c-0.536,0-1.104,0.168-1.608,0.248l-40.104-91.704 c 2.576-2.216, 4.176-5.584, 4.176-9.248c0-5.592-3.64-10.328-8.568-11.752l0-236.456 L 492.168-32c0,0, 19.832,0, 19.832,20.856l0,304.72 L 438.008,322.4zM 186.432,420.28L 33.504,479.856L 33.504,480 L 19.88,480 C 19.88,480,0,480,0,459.152l0-52.424 l0-9.4 L 186.432,420.28zM 416.696,329.384c0,0.296, 0.152,0.816, 0.152,1.12L 392.44,340c-2.312-3.6-5.896-6.584-10.168-7.552l0-101.264 l 38.704,88.824 C 418.448,322.112, 416.696,325.472, 416.696,329.384zM 257.728,392.576l-49.312,19.312c-2-3.184-5.64-5.304-9.512-5.304c-4.84,0-8.984,3.096-10.736,7.272l-172.152-21.28L 257.728,392.576 z M 490.928,463.912c 1.504-1.408, 2.832-3.368, 3.512-5.312l 17.432,2.224c-0.272,4.048-2.576,15.664-14.24,18.488L 490.928,463.912z" data-tags="elss-icon" />
<glyph unicode="&#x23;" d="M 472.464-13.088L 472.464,382.544 c0,10.856-8.704,19.736-19.352,19.736L 341.64,402.28 L 341.64,441.76 c0,21.712-17.424,39.472-38.704,39.472L 209.528,481.232 
	c-21.296,0-38.704-17.76-38.704-39.472l0-39.48 L 59.352,402.28 C 48.712,402.28, 40,393.4, 40,382.544l0-394.76 c0-10.848, 8.712-19.736, 19.352-19.736l 397.768,0 
	C 467.832-31.952, 472.464-21.384, 472.464-13.088z M 209.528,441.688c 0.016,0.016, 0.040,0.048, 0.064,0.072l 93.28,0 
	c 0.032-0.024, 0.048-0.048, 0.064-0.072l0-39.408 L 209.528,402.28 L 209.528,441.688 z M 101.408,307.328l0,47.48 l 309.648,0 l0-47.48 L 101.408,307.328 z" data-tags="clipboard" />
<glyph unicode="&#x24;" d="M 498.744,60.624l-186.976,384C 301.208,466.304, 279.648,480, 256.016,480c-23.624,0-45.216-13.696-55.76-35.376l-186.984-384
	C 3.608,40.784, 4.64,17.216, 16-1.664C 27.352-20.512, 47.408-32, 69.008-32l 373.976,0 c 21.608,0, 41.672,11.488, 53.016,30.336
	C 507.36,17.216, 508.392,40.784, 498.744,60.624z M 222.4,334.672L 288,334.672 l0-176 l-65.6,0 L 222.4,334.672 z M 294.4,75.6c0-21.208-17.2-38.4-38.4-38.4
	c-21.208,0-38.4,17.184-38.4,38.4c0,21.2, 17.184,38.4, 38.4,38.4C 277.192,114, 294.4,96.808, 294.4,75.6z" data-tags="warning" />
<glyph unicode="&#x25;" d="M 256,480C 114.616,480,0,365.384,0,224s 114.616-256, 256-256s 256,114.616, 256,256S 397.384,480, 256,480z M 296,72l-72,0 L 224,256 l 72,0 L 296,72 z M 295,346
	c0-19.88-16.12-36-36-36s-36,16.12-36,36s 16.12,36, 36,36S 295,365.88, 295,346z" data-tags="info" />
<glyph unicode="&#x26;" d="M 256,480C 114.624,480,0,365.376,0,224s 114.624-256, 256-256s 256,114.624, 256,256S 397.376,480, 256,480z M 216.32,105.872 L 98.528,223.68l 45.248,45.248l 72.528-72.56l 153.872,153.872l 45.248-45.248L 216.32,105.872z" data-tags="success" />
<glyph unicode="&#x27;" d="M 384,480L 512,480L 512-32L 384-32zM 192,352L 320,352L 320-32L 192-32zM0,224L 128,224L 128-32L0-32z" data-tags="stats" />
<glyph unicode="&#x28;" d="M 354.192,166L 512,288L 320,288L 256,480L 192,288L0,288L 158,166.496L 96-32L 256.256,90.88L 416.128-32 z" data-tags="star" />
<glyph unicode="&#x29;" d="M 512,192.496l0,64 l-76.496,31.872c-2.128,6-4.368,11.808-7.12,17.504l 30.88,76.88L 414,428 l-76.192-31.376c-5.808,2.816-11.744,5.184-17.872,7.376L 287.504,480l-64,0 l-31.632-75.744c-6.368-2.256-12.496-4.624-18.56-7.504l-76.064,30.56 L 52,382.064l 31.008-75.376C 80,300.496, 77.568,294.192, 75.248,287.68L0,255.504l0-64 l 75.312-31.376c 2.32-6.496, 4.816-12.816, 7.808-19.008 l-30.432-75.872l 45.248-45.248l 75.568,31.12c 6.064-2.88, 12.256-5.184, 18.624-7.376L 224.496-32l 64,0 l 31.68,76.128 c 6.064,2.256, 12.064,4.624, 17.808,7.376l 76.752-30.752l 45.248,45.248l-31.504,76.368c 2.688,5.744, 4.88,11.568, 7.008,17.504L 512,192.496z M 255.504,128c-52.992,0-96,43.008-96,96s 43.008,96, 96,96s 96-43.008, 96-96S 308.496,128, 255.504,128z" data-tags="settings" />
<glyph unicode="&#x2a;" d="M 322.128,480C 217.504,480, 132.368,394.88, 132.368,290.192c0-25.056, 5.12-48.816, 13.936-70.688L0,73.184L 105.12-32l 146.368,146.432 c 21.872-8.88, 45.632-14, 70.624-14c 104.688,0, 189.872,85.12, 189.872,189.728C 512,394.88, 426.816,480, 322.128,480z M 322.128,164.368 c-69.312,0-125.808,56.496-125.808,125.792c0,69.376, 56.496,125.872, 125.808,125.872c 69.44,0, 125.936-56.496, 125.936-125.872 C 448.064,220.88, 391.568,164.368, 322.128,164.368z" data-tags="search" />
<glyph unicode="&#x2b;" d="M 464-32L 48-32 c-8.832,0-16,7.152-16,16L 32,240 c0,8.848, 7.168,16, 16,16l 48,0 l0,64 C 96,408.368, 167.632,480, 256,480 s 160-71.632, 160-160l0-64 l 48,0 c 8.848,0, 16-7.152, 16-16l0-256 C 480-24.848, 472.848-32, 464-32z M 352,328C 352,376.608, 309.008,416, 256,416s-96-39.392-96-88L 160,256 l 192,0 L 352,328 z" data-tags="locked" />
<glyph unicode="&#x2c;" d="M 483.552,79.48 C 483.552,59.256 495.12,41.744 512,33.176 L 512,26.096 C 507.28,25.448 502.456,25.104 497.552,25.104 C 467.328,25.104 440.064,37.784 420.792,58.112 C 409.136,55.008 396.792,53.336 384,53.336 C 313.304,53.336 256,104.272 256,167.112 C 256,229.952 313.304,280.888 384,280.888 C 454.696,280.888 512,229.952 512,167.112 C 512,142.512 503.216,119.736 488.288,101.128 C 485.256,94.536 483.552,87.208 483.552,79.48 ZM 227.552,480 C 351.312,480 452,399.728 455.040,299.768 C 433.176,309.512 409,314.664 384,314.664 C 341.528,314.664 301.416,299.8 271.048,272.808 C 239.56,244.824 222.224,207.28 222.224,167.112 C 222.224,147.256 226.464,128.048 234.552,110.32 C 232.224,110.264 229.896,110.224 227.552,110.224 C 215.488,110.224 203.64,110.992 192.080,112.464 C 143.2,63.584 84.856,54.816 28.448,53.536 L 28.448,65.496 C 58.904,80.416 85.336,107.6 85.336,138.664 C 85.336,143 85,147.256 84.368,151.424 C 32.904,185.312 0,237.088 0,295.112 C 0,397.224 101.88,480 227.552,480 Z" data-tags="livechat" />
<glyph unicode="&#x2d;" d="M 512,184.776 L 256,383.488 L 0,184.776 L 0,265.792 L 256,464.512 L 512,265.792 ZM 448,192 L 448,0 L 320,0 L 320,128 L 192,128 L 192,0 L 64,0 L 64,192 L 256,336 Z" data-tags="home" />
<glyph unicode="&#x2e;" d="M 256,480C 114.624,480,0,365.376,0,224s 114.624-256, 256-256s 256,114.624, 256,256S 397.376,480, 256,480z M 382.624,142.624 l-45.248-45.248L 256,178.752l-81.376-81.376l-45.248,45.248L 210.752,224l-81.376,81.376l 45.248,45.248L 256,269.248l 81.376,81.376l 45.248-45.248 L 301.248,224L 382.624,142.624z" data-tags="error" />
<glyph unicode="&#x2f;" d="M 256,480C 114.624,480,0,365.376,0,224s 114.624-256, 256-256s 256,114.624, 256,256S 397.376,480, 256,480z M 382.624,142.624 l-45.248-45.248L 256,178.752l-81.376-81.376l-45.248,45.248L 210.752,224l-81.376,81.376l 45.248,45.248L 256,269.248l 81.376,81.376l 45.248-45.248 L 301.248,224L 382.624,142.624z" data-tags="closewindow" />
<glyph unicode="&#x30;" d="M 311.416,128.632c-11.056,1.76-11.304,32.16-11.304,32.16s 32.488,32.16, 39.568,75.4 c 19.048,0, 30.808,45.976, 11.76,62.152C 352.224,315.368, 375.912,432, 256,432c-119.912,0-96.224-116.632-95.432-133.664 c-19.048-16.176-7.288-62.152, 11.76-62.152c 7.080-43.24, 39.568-75.4, 39.568-75.4s-0.256-30.4-11.304-32.16 C 164.976,122.968, 32,64.312, 32,0l 224,0 l 224,0 C 480,64.312, 347.024,122.968, 311.416,128.632z" data-tags="avatar" />
<glyph unicode="&#x31;" d="M 432,112L 80,112 l-48-48l0-16 l 16-16l 144,0 c0-35.344, 28.656-64, 64-64s 64,28.656, 64,64l 144,0 l 16,16l0,16 L 432,112z M 416,240 c0,65.6-39.52,121.888-96,146.592L 320,416 c0,35.344-28.656,64-64,64s-64-28.656-64-64l0-29.408 C 135.52,361.888, 96,305.6, 96,240l0-112 l 320,0 L 416,240 z M 224,416c0,17.664, 14.336,32, 32,32 s 32-14.336, 32-32L 224,416 z" data-tags="alarm" />
<glyph unicode="&#x32;" d="M 255.312,126.712c-0.528,0-1.064,0-1.584,0c-125.608,0-227.2,34.128-227.232,60.336L 26.264,289.96
		c0,0.16, 0.056,0.304, 0.056,0.432c 20.688-10.976, 44.992-16.032, 59.52-19.056c 45.152-9.392, 104.792-14.576, 167.888-14.576l 1.584,0 
		c 63.504,0.080, 123.48,5.392, 168.96,14.944c 14.544,3.056, 38.768,8.144, 59.464,19.056c0-0.048,0-0.144,0-0.144L 483.968,187.696
		C 484,161.376, 381.656,126.896, 255.312,126.712z M 255.312,287.76c-0.528,0-1.064,0-1.584,0c-125.608,0-227.2,31.136-227.232,57.344
		L 26.264,432.032C 26.224,458.336, 128.616,479.824, 254.968,480c 0.56,0, 1.088,0, 1.648,0C 382.176,480, 483.696,458.88, 483.728,432.672l 0.24-86.936
		C 484,319.432, 381.656,287.952, 255.312,287.76z M 253.712,95.704l 1.584,0 c 63.504,0.104, 123.496,8.384, 168.968,17.936
		c 14.536,3.056, 38.76,8.152, 59.472,19.072l 0.224-116.728c 0.032-26.32-102.312-47.8-228.656-47.968c-0.536,0-1.056,0-1.616,0
		c-125.576,0-227.168,21.128-227.2,47.312l-0.216,117.032c 20.68-10.992, 45-16.048, 59.56-19.072C 130.976,103.88, 190.608,95.704, 253.712,95.704z
		" data-tags="database" />
<glyph unicode="&#x33;" d="M 413.040,416L 94.424,416 c-29.328,0-53.104-21.488-53.104-48l0-16 l 424.816,0 l0,16 C 466.144,394.512, 442.376,416, 413.040,416z M 320.28,448l 7.816-50.504l-148.72,0 
		L 187.176,448L 320.28,448  M 324.528,480l-141.6,0 c-14.608,0-28.2-10.696-30.224-23.768l-10.36-66.96c-2.016-13.080, 8.28-23.776, 22.88-23.776l 177.008,0 
		c 14.608,0, 24.888,10.696, 22.88,23.768l-10.36,66.96C 352.744,469.304, 339.144,480, 324.528,480L 324.528,480z M 421.888,320L 85.576,320 
		c-19.472,0-33.96-14.344-32.2-31.872l 29-288.272C 84.136-17.656, 101.504-32, 120.976-32l 265.512,0 c 19.472,0, 36.832,14.344, 38.6,31.856
		l 29,288.272C 455.848,305.656, 441.368,320, 421.888,320z M 182.928,32l-53.104,0 l-17.704,224l 70.808,0 L 182.928,32 z M 289.136,32l-70.8,0 L 218.336,256 l 70.8,0 L 289.136,32 z M 377.632,32
		l-53.104,0 L 324.528,256 l 70.808,0 L 377.632,32z" data-tags="delete" />
<glyph unicode="&#x34;" d="M0,40.344l 512,0 L 512-32 L0-32 L0,40.344 z M 326.904,200.344L 326.904,480 l-146.72,0 l0-279.656 l-73.344,0 l 146.704-160l 146.72,160L 326.904,200.344 z" data-tags="download" />
<glyph unicode="&#x35;" d="M 280.664,397.64l 123.352,21.168l 98.648-429.648L 379.296-32L 280.664,397.64z M0-32l 128,0 L 128,429.384 L0,429.384 L0-32 z M 32,365.384l 64,0 l0-32 L 32,333.384 L 32,365.384 z
	 M 150.384-32l 128,0 L 278.384,429.384 l-128,0 L 150.384-32 z M 182.384,365.384l 64,0 l0-32 l-64,0 L 182.384,365.384 z" data-tags="library" />
<glyph unicode="&#x36;" d="M 7.272,480l 502.456,0 l0-118.648 L 7.272,361.352 L 7.272,480 z M 7.272,286.52l 502.456,0 l0-117.92 L 7.272,168.6 L 7.272,286.52 z M 7.272,91.504l 502.456,0 l0-117.92 L 7.272-26.416 L 7.272,91.504 z" data-tags="menu" />
<glyph unicode="&#x37;" d="M 512,480L 128,480 l0-128 c-46.496,0-128,0-128,0l0-384 l 384,0 L 384,96 l 128,0 L 512,480 z M 320,14.392L 44.824,14.392 L 44.824,241.168 L 128,241.168 L 128,96 l 192,0 C 320,67.376, 320,14.392, 320,14.392z
		 M 466.616,141.384L 174.080,141.384 l0,229.040 l 292.536,0 L 466.616,141.384 z" data-tags="opennewwindow" />
<glyph unicode="&#x38;" d="M 512,408L0,408 L0,480 l 512,0 L 512,408 z M 180.192,248l0-280 l 146.712,0 L 326.904,248 l 73.352,0 L 253.552,408l-146.72-160L 180.192,248 z" data-tags="upload" />
<glyph unicode="&#x39;" d="M 512,480l0-208 l-75,75l-104-104l-58,58l 104,104L 304,480L 512,480 z M0-32L0,176 l 75-75l 104,104l 58-58l-104-104L 208-32L0-32 z" data-tags="expand" />
<glyph unicode="&#x3a;" d="M 275,243l0,208 L 350,376l 104,104L 512,422l-104-104l 75-75L 275,243 z M 238,206.024l0-208 l-75,75l-104-104l-58,58
	l 104,104L 30,206.024L 238,206.024 z" data-tags="contract" />
<glyph unicode="&#x3b;" d="M 424,48l-48,0 c-4.416,0-8,3.584-8,8s 3.584,8, 8,8L 416,64 l0,40 c0,4.416, 3.584,8, 8,8c 4.4,0, 8-3.584, 8-8l0-48 C 432,51.584, 428.4,48, 424,48z M 424,144c-4.416,0-8,3.584-8,8l0,48 c0,4.416, 3.584,8, 8,8c 4.4,0, 8-3.584, 8-8l0-48 C 432,147.584, 428.4,144, 424,144z M 424,240c-4.416,0-8,3.584-8,8l0,48 c0,4.416, 3.584,8, 8,8c 4.4,0, 8-3.584, 8-8l0-48 C 432,243.584, 428.4,240, 424,240z M 424,336C 419.584,336, 416,339.584, 416,344L 416,384 l-40,0 C 371.584,384, 368,387.584, 368,392S 371.584,400, 376,400l 48,0 C 428.4,400, 432,396.416, 432,392l0-48 C 432,339.584, 428.4,336, 424,336z M 328,48l-48,0 c-4.416,0-8,3.584-8,8s 3.584,8, 8,8l 48,0 c 4.4,0, 8-3.584, 8-8S 332.4,48, 328,48z M 328,384l-48,0 C 275.584,384, 272,387.584, 272,392S 275.584,400, 280,400l 48,0 C 332.4,400, 336,396.416, 336,392S 332.4,384, 328,384z M 319.008,240c 8.832,0, 16-7.152, 16-16 c0-8.832-7.168-16-16-16l-48,0 l0-48 c0-8.832-7.168-16-16-16c-8.848,0-16,7.168-16,16l0,48 l-48,0 c-8.832,0-16,7.168-16,16c0,8.848, 7.152,16, 16,16l 48,0 l0,48 c0,8.848, 7.152,16, 16,16c 8.832,0, 16-7.152, 16-16l0-48 L 319.008,240 z M 232,384l-48,0 C 179.584,384, 176,387.584, 176,392S 179.584,400, 184,400l 48,0 C 236.4,400, 240,396.416, 240,392S 236.4,384, 232,384z M 136,48l-48,0 C 83.584,48, 80,51.584, 80,56l0,48 C 80,108.416, 83.584,112, 88,112 C 92.416,112, 96,108.416, 96,104L 96,64 l 40,0 C 140.416,64, 144,60.416, 144,56S 140.416,48, 136,48z M 136,384L 96,384 l0-40 C 96,339.584, 92.416,336, 88,336 C 83.584,336, 80,339.584, 80,344l0,48 C 80,396.416, 83.584,400, 88,400l 48,0 C 140.416,400, 144,396.416, 144,392S 140.416,384, 136,384z M 88,304C 92.416,304, 96,300.416, 96,296l0-48 C 96,243.584, 92.416,240, 88,240C 83.584,240, 80,243.584, 80,248l0,48 C 80,300.416, 83.584,304, 88,304z M 88,208C 92.416,208, 96,204.416, 96,200l0-48 C 96,147.584, 92.416,144, 88,144C 83.584,144, 80,147.584, 80,152l0,48 C 80,204.416, 83.584,208, 88,208z M 184,64l 48,0 c 4.4,0, 8-3.584, 8-8 S 236.4,48, 232,48l-48,0 c-4.416,0-8,3.584-8,8S 179.584,64, 184,64z" data-tags="tree-expand" />
<glyph unicode="&#x3c;" d="M 136,400l-48,0 C 83.584,400, 80,396.416, 80,392l0-48 C 80,339.584, 83.584,336, 88,336C 92.416,336, 96,339.584, 96,344 L 96,384 l 40,0 C 140.416,384, 144,387.584, 144,392S 140.416,400, 136,400z M 184,384l 48,0 C 236.4,384, 240,387.584, 240,392S 236.4,400, 232,400l-48,0 C 179.584,400, 176,396.416, 176,392 S 179.584,384, 184,384z M 328,400l-48,0 C 275.584,400, 272,396.416, 272,392S 275.584,384, 280,384l 48,0 C 332.4,384, 336,387.584, 336,392S 332.4,400, 328,400z M 424,400l-48,0 C 371.584,400, 368,396.416, 368,392S 371.584,384, 376,384L 416,384 l0-40 C 416,339.584, 419.584,336, 424,336C 428.4,336, 432,339.584, 432,344l0,48 C 432,396.416, 428.4,400, 424,400z M 424,304c-4.416,0-8-3.584-8-8l0-48 c0-4.416, 3.584-8, 8-8c 4.4,0, 8,3.584, 8,8l0,48 C 432,300.416, 428.4,304, 424,304z M 424,208c-4.416,0-8-3.584-8-8l0-48 c0-4.416, 3.584-8, 8-8c 4.4,0, 8,3.584, 8,8l0,48 C 432,204.416, 428.4,208, 424,208z M 424,112c-4.416,0-8-3.584-8-8L 416,64 l-40,0 c-4.416,0-8-3.584-8-8s 3.584-8, 8-8l 48,0 c 4.4,0, 8,3.584, 8,8l0,48 C 432,108.416, 428.4,112, 424,112z M 328,64l-48,0 c-4.416,0-8-3.584-8-8s 3.584-8, 8-8l 48,0 c 4.4,0, 8,3.584, 8,8S 332.4,64, 328,64z M 232,64l-48,0 c-4.416,0-8-3.584-8-8s 3.584-8, 8-8l 48,0 c 4.4,0, 8,3.584, 8,8S 236.4,64, 232,64z M 136,64L 96,64 l0,40 C 96,108.416, 92.416,112, 88,112C 83.584,112, 80,108.416, 80,104l0-48 C 80,51.584, 83.584,48, 88,48l 48,0 C 140.416,48, 144,51.584, 144,56S 140.416,64, 136,64z M 88,144C 92.416,144, 96,147.584, 96,152l0,48 C 96,204.416, 92.416,208, 88,208C 83.584,208, 80,204.416, 80,200l0-48 C 80,147.584, 83.584,144, 88,144z M 88,240C 92.416,240, 96,243.584, 96,248l0,48 C 96,300.416, 92.416,304, 88,304C 83.584,304, 80,300.416, 80,296l0-48 C 80,243.584, 83.584,240, 88,240z M 191.008,208l 128,0 c 8.848,0, 16,7.168, 16,16 c0,8.848-7.152,16-16,16l-128,0 c-8.848,0-16-7.152-16-16C 175.008,215.168, 182.16,208, 191.008,208z" data-tags="tree-collapse" />
<glyph unicode="&#x3d;" d="M0,224c0-141.376, 114.624-256, 256-256c 141.392,0, 256,114.624, 256,256c0,141.392-114.608,256-256,256C 114.624,480,0,365.392,0,224z M 384,224 l-128-128l0,96 L 128,192 l0,64 l 128,0 L 256,352 L 384,224z" data-tags="circle-arrow-right" />
<glyph unicode="&#x3e;" d="M 512,224c0,141.376-114.624,256-256,256C 114.608,480,0,365.376,0,224c0-141.392, 114.608-256, 256-256C 397.376-32, 512,82.608, 512,224z M 128,224l 128,128l0-96 l 128,0 l0-64 l-128,0 l0-96 L 128,224z" data-tags="circle-arrow-left" />
<glyph unicode="&#x3f;" d="M 256,480L 32-32L 256,64L 480-32 z" data-tags="arrow-up" />
<glyph unicode="&#x40;" d="M 512,224L0,448L 96,224L0,0 z" data-tags="arrow-right" />
<glyph unicode="&#x41;" d="M0,224L 512,0L 416,224L 512,448 z" data-tags="arrow-left" />
<glyph unicode="&#x42;" d="M 256-32L 480,480L 256,384L 32,480 z" data-tags="arrow-down" />
<glyph unicode="&#x20;" horiz-adv-x="256" />
</font>
</defs>
</svg>
